<?xml version="1.0" encoding="us-ascii" standalone="no"?><svg xmlns="http://www.w3.org/2000/svg" xmlns:xlink="http://www.w3.org/1999/xlink" contentStyleType="text/css" height="772px" preserveAspectRatio="none" style="width:767px;height:772px;background:#FFFFFF;" version="1.1" viewBox="0 0 767 772" width="767px" zoomAndPan="magnify"><defs/><g><!--class Device--><g id="elem_Device"><rect codeLine="2" fill="#F1F1F1" height="118.4375" id="Device" rx="2.5" ry="2.5" style="stroke:#181818;stroke-width:0.5;" width="150" x="326.5" y="487"/><ellipse cx="376.25" cy="503" fill="#A9DCDF" rx="11" ry="11" style="stroke:#181818;stroke-width:1.0;"/><path d="M378.4375,504.7656 L374.2969,504.7656 L373.875,505.7969 L374.2969,505.7969 Q374.9063,505.7969 375.1719,506.0313 Q375.4375,506.2656 375.4375,506.6563 Q375.4375,507.0313 375.1719,507.2656 Q374.9063,507.5 374.2969,507.5 L372,507.5 Q371.3906,507.5 371.1406,507.2656 Q370.875,507.0313 370.875,506.6406 Q370.875,506.2656 371.1563,506.0313 Q371.4219,505.7813 372.0469,505.7969 L374.7188,499.1406 L373.6094,499.1406 Q373,499.1406 372.7344,498.9063 Q372.4688,498.6719 372.4688,498.2813 Q372.4688,497.9063 372.7344,497.6719 Q373,497.4375 373.6094,497.4375 L377.2813,497.4375 L380.6719,505.7969 Q381.2656,505.7969 381.4531,505.9375 Q381.8438,506.2031 381.8438,506.6563 Q381.8438,507.0313 381.5781,507.2656 Q381.3281,507.5 380.7188,507.5 L378.4219,507.5 Q377.8125,507.5 377.5469,507.2656 Q377.2813,507.0313 377.2813,506.6406 Q377.2813,506.2656 377.5469,506.0313 Q377.8125,505.7969 378.4219,505.7969 L378.8438,505.7969 L378.4375,504.7656 Z M377.7188,503.0625 L376.3594,499.6875 L374.9844,503.0625 L377.7188,503.0625 Z " fill="#000000"/><text fill="#000000" font-family="sans-serif" font-size="14" font-style="italic" lengthAdjust="spacing" textLength="42" x="396.75" y="508.7285">Device</text><line style="stroke:#181818;stroke-width:0.5;" x1="327.5" x2="475.5" y1="519" y2="519"/><rect fill="none" height="6" style="stroke:#C82930;stroke-width:1.0;" width="6" x="334.5" y="530.3047"/><text fill="#000000" font-family="sans-serif" font-size="14" lengthAdjust="spacing" textLength="82" x="346.5" y="537.5332">brand: String</text><rect fill="none" height="6" style="stroke:#C82930;stroke-width:1.0;" width="6" x="334.5" y="547.9141"/><text fill="#000000" font-family="sans-serif" font-size="14" lengthAdjust="spacing" textLength="66" x="346.5" y="555.1426">price: float</text><rect fill="none" height="6" style="stroke:#C82930;stroke-width:1.0;" width="6" x="334.5" y="565.5234"/><text fill="#000000" font-family="sans-serif" font-size="14" lengthAdjust="spacing" textLength="73" x="346.5" y="572.752">quantity: int</text><line style="stroke:#181818;stroke-width:1.0;stroke-dasharray:1.0,2.0;" x1="327.5" x2="475.5" y1="579.8281" y2="579.8281"/><ellipse cx="337.5" cy="594.1328" fill="#84BE84" rx="3" ry="3" style="stroke:#038048;stroke-width:1.0;"/><text fill="#000000" font-family="sans-serif" font-size="14" lengthAdjust="spacing" textLength="124" x="346.5" y="598.3613">get_details(): String</text></g><!--class MobilePhone--><g id="elem_MobilePhone"><rect codeLine="10" fill="#F1F1F1" height="100.8281" id="MobilePhone" rx="2.5" ry="2.5" style="stroke:#181818;stroke-width:0.5;" width="183" x="108" y="665"/><ellipse cx="154.25" cy="681" fill="#ADD1B2" rx="11" ry="11" style="stroke:#181818;stroke-width:1.0;"/><path d="M157.0156,676.875 Q157.1719,676.6563 157.3594,676.5469 Q157.5469,676.4375 157.7656,676.4375 Q158.1406,676.4375 158.375,676.7031 Q158.6094,676.9531 158.6094,677.5625 L158.6094,679.0156 Q158.6094,679.625 158.375,679.8906 Q158.1406,680.1563 157.7656,680.1563 Q157.4219,680.1563 157.2188,679.9531 Q157.0156,679.7656 156.9063,679.25 Q156.8594,678.8906 156.6719,678.7031 Q156.3438,678.3281 155.7344,678.1094 Q155.125,677.8906 154.5,677.8906 Q153.7344,677.8906 153.0938,678.2188 Q152.4688,678.5469 151.9688,679.2969 Q151.4844,680.0469 151.4844,681.0781 L151.4844,682.1719 Q151.4844,683.4063 152.375,684.2344 Q153.2656,685.0469 154.8594,685.0469 Q155.7969,685.0469 156.4531,684.7969 Q156.8438,684.6406 157.2656,684.2031 Q157.5313,683.9375 157.6719,683.8594 Q157.8281,683.7813 158.0313,683.7813 Q158.3594,683.7813 158.6094,684.0469 Q158.875,684.2969 158.875,684.6406 Q158.875,684.9844 158.5313,685.3906 Q158.0313,685.9688 157.2344,686.2969 Q156.1563,686.75 154.8594,686.75 Q153.3438,686.75 152.1406,686.125 Q151.1563,685.625 150.4688,684.5625 Q149.7813,683.4844 149.7813,682.2031 L149.7813,681.0469 Q149.7813,679.7188 150.3906,678.5781 Q151.0156,677.4219 152.1094,676.8125 Q153.2031,676.1875 154.4375,676.1875 Q155.1719,676.1875 155.8125,676.3594 Q156.4688,676.5156 157.0156,676.875 Z " fill="#000000"/><text fill="#000000" font-family="sans-serif" font-size="14" lengthAdjust="spacing" textLength="82" x="174.75" y="686.7285">MobilePhone</text><line style="stroke:#181818;stroke-width:0.5;" x1="109" x2="290" y1="697" y2="697"/><rect fill="none" height="6" style="stroke:#C82930;stroke-width:1.0;" width="6" x="116" y="708.3047"/><text fill="#000000" font-family="sans-serif" font-size="14" lengthAdjust="spacing" textLength="157" x="128" y="715.5332">operating_system: String</text><rect fill="none" height="6" style="stroke:#C82930;stroke-width:1.0;" width="6" x="116" y="725.9141"/><text fill="#000000" font-family="sans-serif" font-size="14" lengthAdjust="spacing" textLength="131" x="128" y="733.1426">storage_capacity: int</text><line style="stroke:#181818;stroke-width:1.0;stroke-dasharray:1.0,2.0;" x1="109" x2="290" y1="740.2188" y2="740.2188"/><ellipse cx="119" cy="754.5234" fill="#84BE84" rx="3" ry="3" style="stroke:#038048;stroke-width:1.0;"/><text fill="#000000" font-family="sans-serif" font-size="14" lengthAdjust="spacing" textLength="124" x="128" y="758.752">get_details(): String</text></g><!--class Laptop--><g id="elem_Laptop"><rect codeLine="17" fill="#F1F1F1" height="100.8281" id="Laptop" rx="2.5" ry="2.5" style="stroke:#181818;stroke-width:0.5;" width="150" x="326.5" y="665"/><ellipse cx="375.25" cy="681" fill="#ADD1B2" rx="11" ry="11" style="stroke:#181818;stroke-width:1.0;"/><path d="M378.0156,676.875 Q378.1719,676.6563 378.3594,676.5469 Q378.5469,676.4375 378.7656,676.4375 Q379.1406,676.4375 379.375,676.7031 Q379.6094,676.9531 379.6094,677.5625 L379.6094,679.0156 Q379.6094,679.625 379.375,679.8906 Q379.1406,680.1563 378.7656,680.1563 Q378.4219,680.1563 378.2188,679.9531 Q378.0156,679.7656 377.9063,679.25 Q377.8594,678.8906 377.6719,678.7031 Q377.3438,678.3281 376.7344,678.1094 Q376.125,677.8906 375.5,677.8906 Q374.7344,677.8906 374.0938,678.2188 Q373.4688,678.5469 372.9688,679.2969 Q372.4844,680.0469 372.4844,681.0781 L372.4844,682.1719 Q372.4844,683.4063 373.375,684.2344 Q374.2656,685.0469 375.8594,685.0469 Q376.7969,685.0469 377.4531,684.7969 Q377.8438,684.6406 378.2656,684.2031 Q378.5313,683.9375 378.6719,683.8594 Q378.8281,683.7813 379.0313,683.7813 Q379.3594,683.7813 379.6094,684.0469 Q379.875,684.2969 379.875,684.6406 Q379.875,684.9844 379.5313,685.3906 Q379.0313,685.9688 378.2344,686.2969 Q377.1563,686.75 375.8594,686.75 Q374.3438,686.75 373.1406,686.125 Q372.1563,685.625 371.4688,684.5625 Q370.7813,683.4844 370.7813,682.2031 L370.7813,681.0469 Q370.7813,679.7188 371.3906,678.5781 Q372.0156,677.4219 373.1094,676.8125 Q374.2031,676.1875 375.4375,676.1875 Q376.1719,676.1875 376.8125,676.3594 Q377.4688,676.5156 378.0156,676.875 Z " fill="#000000"/><text fill="#000000" font-family="sans-serif" font-size="14" lengthAdjust="spacing" textLength="44" x="395.75" y="686.7285">Laptop</text><line style="stroke:#181818;stroke-width:0.5;" x1="327.5" x2="475.5" y1="697" y2="697"/><rect fill="none" height="6" style="stroke:#C82930;stroke-width:1.0;" width="6" x="334.5" y="708.3047"/><text fill="#000000" font-family="sans-serif" font-size="14" lengthAdjust="spacing" textLength="108" x="346.5" y="715.5332">processor: String</text><rect fill="none" height="6" style="stroke:#C82930;stroke-width:1.0;" width="6" x="334.5" y="725.9141"/><text fill="#000000" font-family="sans-serif" font-size="14" lengthAdjust="spacing" textLength="47" x="346.5" y="733.1426">ram: int</text><line style="stroke:#181818;stroke-width:1.0;stroke-dasharray:1.0,2.0;" x1="327.5" x2="475.5" y1="740.2188" y2="740.2188"/><ellipse cx="337.5" cy="754.5234" fill="#84BE84" rx="3" ry="3" style="stroke:#038048;stroke-width:1.0;"/><text fill="#000000" font-family="sans-serif" font-size="14" lengthAdjust="spacing" textLength="124" x="346.5" y="758.752">get_details(): String</text></g><!--class Television--><g id="elem_Television"><rect codeLine="24" fill="#F1F1F1" height="100.8281" id="Television" rx="2.5" ry="2.5" style="stroke:#181818;stroke-width:0.5;" width="150" x="511.5" y="665"/><ellipse cx="550.8" cy="681" fill="#ADD1B2" rx="11" ry="11" style="stroke:#181818;stroke-width:1.0;"/><path d="M553.5656,676.875 Q553.7219,676.6563 553.9094,676.5469 Q554.0969,676.4375 554.3156,676.4375 Q554.6906,676.4375 554.925,676.7031 Q555.1594,676.9531 555.1594,677.5625 L555.1594,679.0156 Q555.1594,679.625 554.925,679.8906 Q554.6906,680.1563 554.3156,680.1563 Q553.9719,680.1563 553.7688,679.9531 Q553.5656,679.7656 553.4563,679.25 Q553.4094,678.8906 553.2219,678.7031 Q552.8938,678.3281 552.2844,678.1094 Q551.675,677.8906 551.05,677.8906 Q550.2844,677.8906 549.6438,678.2188 Q549.0188,678.5469 548.5188,679.2969 Q548.0344,680.0469 548.0344,681.0781 L548.0344,682.1719 Q548.0344,683.4063 548.925,684.2344 Q549.8156,685.0469 551.4094,685.0469 Q552.3469,685.0469 553.0031,684.7969 Q553.3938,684.6406 553.8156,684.2031 Q554.0813,683.9375 554.2219,683.8594 Q554.3781,683.7813 554.5813,683.7813 Q554.9094,683.7813 555.1594,684.0469 Q555.425,684.2969 555.425,684.6406 Q555.425,684.9844 555.0813,685.3906 Q554.5813,685.9688 553.7844,686.2969 Q552.7063,686.75 551.4094,686.75 Q549.8938,686.75 548.6906,686.125 Q547.7063,685.625 547.0188,684.5625 Q546.3313,683.4844 546.3313,682.2031 L546.3313,681.0469 Q546.3313,679.7188 546.9406,678.5781 Q547.5656,677.4219 548.6594,676.8125 Q549.7531,676.1875 550.9875,676.1875 Q551.7219,676.1875 552.3625,676.3594 Q553.0188,676.5156 553.5656,676.875 Z " fill="#000000"/><text fill="#000000" font-family="sans-serif" font-size="14" lengthAdjust="spacing" textLength="64" x="570.2" y="686.7285">Television</text><line style="stroke:#181818;stroke-width:0.5;" x1="512.5" x2="660.5" y1="697" y2="697"/><rect fill="none" height="6" style="stroke:#C82930;stroke-width:1.0;" width="6" x="519.5" y="708.3047"/><text fill="#000000" font-family="sans-serif" font-size="14" lengthAdjust="spacing" textLength="110" x="531.5" y="715.5332">screen_size: float</text><rect fill="none" height="6" style="stroke:#C82930;stroke-width:1.0;" width="6" x="519.5" y="725.9141"/><text fill="#000000" font-family="sans-serif" font-size="14" lengthAdjust="spacing" textLength="112" x="531.5" y="733.1426">is_smart: boolean</text><line style="stroke:#181818;stroke-width:1.0;stroke-dasharray:1.0,2.0;" x1="512.5" x2="660.5" y1="740.2188" y2="740.2188"/><ellipse cx="522.5" cy="754.5234" fill="#84BE84" rx="3" ry="3" style="stroke:#038048;stroke-width:1.0;"/><text fill="#000000" font-family="sans-serif" font-size="14" lengthAdjust="spacing" textLength="124" x="531.5" y="758.752">get_details(): String</text></g><!--class Inventory--><g id="elem_Inventory"><rect codeLine="31" fill="#F1F1F1" height="136.0469" id="Inventory" rx="2.5" ry="2.5" style="stroke:#181818;stroke-width:0.5;" width="395" x="7" y="264.5"/><ellipse cx="171.25" cy="280.5" fill="#ADD1B2" rx="11" ry="11" style="stroke:#181818;stroke-width:1.0;"/><path d="M174.0156,276.375 Q174.1719,276.1563 174.3594,276.0469 Q174.5469,275.9375 174.7656,275.9375 Q175.1406,275.9375 175.375,276.2031 Q175.6094,276.4531 175.6094,277.0625 L175.6094,278.5156 Q175.6094,279.125 175.375,279.3906 Q175.1406,279.6563 174.7656,279.6563 Q174.4219,279.6563 174.2188,279.4531 Q174.0156,279.2656 173.9063,278.75 Q173.8594,278.3906 173.6719,278.2031 Q173.3438,277.8281 172.7344,277.6094 Q172.125,277.3906 171.5,277.3906 Q170.7344,277.3906 170.0938,277.7188 Q169.4688,278.0469 168.9688,278.7969 Q168.4844,279.5469 168.4844,280.5781 L168.4844,281.6719 Q168.4844,282.9063 169.375,283.7344 Q170.2656,284.5469 171.8594,284.5469 Q172.7969,284.5469 173.4531,284.2969 Q173.8438,284.1406 174.2656,283.7031 Q174.5313,283.4375 174.6719,283.3594 Q174.8281,283.2813 175.0313,283.2813 Q175.3594,283.2813 175.6094,283.5469 Q175.875,283.7969 175.875,284.1406 Q175.875,284.4844 175.5313,284.8906 Q175.0313,285.4688 174.2344,285.7969 Q173.1563,286.25 171.8594,286.25 Q170.3438,286.25 169.1406,285.625 Q168.1563,285.125 167.4688,284.0625 Q166.7813,282.9844 166.7813,281.7031 L166.7813,280.5469 Q166.7813,279.2188 167.3906,278.0781 Q168.0156,276.9219 169.1094,276.3125 Q170.2031,275.6875 171.4375,275.6875 Q172.1719,275.6875 172.8125,275.8594 Q173.4688,276.0156 174.0156,276.375 Z " fill="#000000"/><text fill="#000000" font-family="sans-serif" font-size="14" lengthAdjust="spacing" textLength="58" x="191.75" y="286.2285">Inventory</text><line style="stroke:#181818;stroke-width:0.5;" x1="8" x2="401" y1="296.5" y2="296.5"/><rect fill="none" height="6" style="stroke:#C82930;stroke-width:1.0;" width="6" x="15" y="307.8047"/><text fill="#000000" font-family="sans-serif" font-size="14" lengthAdjust="spacing" textLength="137" x="27" y="315.0332">devices: List&lt;Device&gt;</text><line style="stroke:#181818;stroke-width:1.0;stroke-dasharray:1.0,2.0;" x1="8" x2="401" y1="322.1094" y2="322.1094"/><ellipse cx="18" cy="336.4141" fill="#84BE84" rx="3" ry="3" style="stroke:#038048;stroke-width:1.0;"/><text fill="#000000" font-family="sans-serif" font-size="14" lengthAdjust="spacing" textLength="209" x="27" y="340.6426">add_device(device: Device): void</text><ellipse cx="18" cy="354.0234" fill="#84BE84" rx="3" ry="3" style="stroke:#038048;stroke-width:1.0;"/><text fill="#000000" font-family="sans-serif" font-size="14" lengthAdjust="spacing" textLength="222" x="27" y="358.252">remove_device(brand: String): void</text><ellipse cx="18" cy="371.6328" fill="#84BE84" rx="3" ry="3" style="stroke:#038048;stroke-width:1.0;"/><text fill="#000000" font-family="sans-serif" font-size="14" lengthAdjust="spacing" textLength="369" x="27" y="375.8613">update_device_quantity(brand: String, quantity: int): String</text><ellipse cx="18" cy="389.2422" fill="#84BE84" rx="3" ry="3" style="stroke:#038048;stroke-width:1.0;"/><text fill="#000000" font-family="sans-serif" font-size="14" lengthAdjust="spacing" textLength="154" x="27" y="393.4707">display_inventory(): void</text></g><!--class Customer--><g id="elem_Customer"><rect codeLine="40" fill="#F1F1F1" height="171.2656" id="Customer" rx="2.5" ry="2.5" style="stroke:#181818;stroke-width:0.5;" width="215" x="491" y="7"/><ellipse cx="563.75" cy="23" fill="#ADD1B2" rx="11" ry="11" style="stroke:#181818;stroke-width:1.0;"/><path d="M566.5156,18.875 Q566.6719,18.6563 566.8594,18.5469 Q567.0469,18.4375 567.2656,18.4375 Q567.6406,18.4375 567.875,18.7031 Q568.1094,18.9531 568.1094,19.5625 L568.1094,21.0156 Q568.1094,21.625 567.875,21.8906 Q567.6406,22.1563 567.2656,22.1563 Q566.9219,22.1563 566.7188,21.9531 Q566.5156,21.7656 566.4063,21.25 Q566.3594,20.8906 566.1719,20.7031 Q565.8438,20.3281 565.2344,20.1094 Q564.625,19.8906 564,19.8906 Q563.2344,19.8906 562.5938,20.2188 Q561.9688,20.5469 561.4688,21.2969 Q560.9844,22.0469 560.9844,23.0781 L560.9844,24.1719 Q560.9844,25.4063 561.875,26.2344 Q562.7656,27.0469 564.3594,27.0469 Q565.2969,27.0469 565.9531,26.7969 Q566.3438,26.6406 566.7656,26.2031 Q567.0313,25.9375 567.1719,25.8594 Q567.3281,25.7813 567.5313,25.7813 Q567.8594,25.7813 568.1094,26.0469 Q568.375,26.2969 568.375,26.6406 Q568.375,26.9844 568.0313,27.3906 Q567.5313,27.9688 566.7344,28.2969 Q565.6563,28.75 564.3594,28.75 Q562.8438,28.75 561.6406,28.125 Q560.6563,27.625 559.9688,26.5625 Q559.2813,25.4844 559.2813,24.2031 L559.2813,23.0469 Q559.2813,21.7188 559.8906,20.5781 Q560.5156,19.4219 561.6094,18.8125 Q562.7031,18.1875 563.9375,18.1875 Q564.6719,18.1875 565.3125,18.3594 Q565.9688,18.5156 566.5156,18.875 Z " fill="#000000"/><text fill="#000000" font-family="sans-serif" font-size="14" lengthAdjust="spacing" textLength="61" x="584.25" y="28.7285">Customer</text><line style="stroke:#181818;stroke-width:0.5;" x1="492" x2="705" y1="39" y2="39"/><rect fill="none" height="6" style="stroke:#C82930;stroke-width:1.0;" width="6" x="499" y="50.3047"/><text fill="#000000" font-family="sans-serif" font-size="14" lengthAdjust="spacing" textLength="80" x="511" y="57.5332">name: String</text><rect fill="none" height="6" style="stroke:#C82930;stroke-width:1.0;" width="6" x="499" y="67.9141"/><text fill="#000000" font-family="sans-serif" font-size="14" lengthAdjust="spacing" textLength="85" x="511" y="75.1426">phone: String</text><rect fill="none" height="6" style="stroke:#C82930;stroke-width:1.0;" width="6" x="499" y="85.5234"/><text fill="#000000" font-family="sans-serif" font-size="14" lengthAdjust="spacing" textLength="96" x="511" y="92.752">address: String</text><rect fill="none" height="6" style="stroke:#C82930;stroke-width:1.0;" width="6" x="499" y="103.1328"/><text fill="#000000" font-family="sans-serif" font-size="14" lengthAdjust="spacing" textLength="78" x="511" y="110.3613">email: String</text><rect fill="none" height="6" style="stroke:#C82930;stroke-width:1.0;" width="6" x="499" y="120.7422"/><text fill="#000000" font-family="sans-serif" font-size="14" lengthAdjust="spacing" textLength="124" x="511" y="127.9707">orders: List&lt;Order&gt;</text><line style="stroke:#181818;stroke-width:1.0;stroke-dasharray:1.0,2.0;" x1="492" x2="705" y1="135.0469" y2="135.0469"/><ellipse cx="502" cy="149.3516" fill="#84BE84" rx="3" ry="3" style="stroke:#038048;stroke-width:1.0;"/><text fill="#000000" font-family="sans-serif" font-size="14" lengthAdjust="spacing" textLength="189" x="511" y="153.5801">add_order(order: Order): void</text><ellipse cx="502" cy="166.9609" fill="#84BE84" rx="3" ry="3" style="stroke:#038048;stroke-width:1.0;"/><text fill="#000000" font-family="sans-serif" font-size="14" lengthAdjust="spacing" textLength="179" x="511" y="171.1895">calculate_total_spent(): float</text></g><!--class Order--><g id="elem_Order"><rect codeLine="51" fill="#F1F1F1" height="188.875" id="Order" rx="2.5" ry="2.5" style="stroke:#181818;stroke-width:0.5;" width="323" x="437" y="238"/><ellipse cx="575.75" cy="254" fill="#ADD1B2" rx="11" ry="11" style="stroke:#181818;stroke-width:1.0;"/><path d="M578.5156,249.875 Q578.6719,249.6563 578.8594,249.5469 Q579.0469,249.4375 579.2656,249.4375 Q579.6406,249.4375 579.875,249.7031 Q580.1094,249.9531 580.1094,250.5625 L580.1094,252.0156 Q580.1094,252.625 579.875,252.8906 Q579.6406,253.1563 579.2656,253.1563 Q578.9219,253.1563 578.7188,252.9531 Q578.5156,252.7656 578.4063,252.25 Q578.3594,251.8906 578.1719,251.7031 Q577.8438,251.3281 577.2344,251.1094 Q576.625,250.8906 576,250.8906 Q575.2344,250.8906 574.5938,251.2188 Q573.9688,251.5469 573.4688,252.2969 Q572.9844,253.0469 572.9844,254.0781 L572.9844,255.1719 Q572.9844,256.4063 573.875,257.2344 Q574.7656,258.0469 576.3594,258.0469 Q577.2969,258.0469 577.9531,257.7969 Q578.3438,257.6406 578.7656,257.2031 Q579.0313,256.9375 579.1719,256.8594 Q579.3281,256.7813 579.5313,256.7813 Q579.8594,256.7813 580.1094,257.0469 Q580.375,257.2969 580.375,257.6406 Q580.375,257.9844 580.0313,258.3906 Q579.5313,258.9688 578.7344,259.2969 Q577.6563,259.75 576.3594,259.75 Q574.8438,259.75 573.6406,259.125 Q572.6563,258.625 571.9688,257.5625 Q571.2813,256.4844 571.2813,255.2031 L571.2813,254.0469 Q571.2813,252.7188 571.8906,251.5781 Q572.5156,250.4219 573.6094,249.8125 Q574.7031,249.1875 575.9375,249.1875 Q576.6719,249.1875 577.3125,249.3594 Q577.9688,249.5156 578.5156,249.875 Z " fill="#000000"/><text fill="#000000" font-family="sans-serif" font-size="14" lengthAdjust="spacing" textLength="37" x="596.25" y="259.7285">Order</text><line style="stroke:#181818;stroke-width:0.5;" x1="438" x2="759" y1="270" y2="270"/><rect fill="none" height="6" style="stroke:#C82930;stroke-width:1.0;" width="6" x="445" y="281.3047"/><text fill="#000000" font-family="sans-serif" font-size="14" lengthAdjust="spacing" textLength="127" x="457" y="288.5332">customer: Customer</text><rect fill="#F24D5C" height="6" style="stroke:#C82930;stroke-width:1.0;" width="6" x="445" y="298.9141"/><text fill="#000000" font-family="sans-serif" font-size="14" lengthAdjust="spacing" textLength="177" x="457" y="306.1426">products: List&lt;(Device, int)&gt;</text><rect fill="none" height="6" style="stroke:#C82930;stroke-width:1.0;" width="6" x="445" y="316.5234"/><text fill="#000000" font-family="sans-serif" font-size="14" lengthAdjust="spacing" textLength="90" x="457" y="323.752">date: datetime</text><rect fill="none" height="6" style="stroke:#C82930;stroke-width:1.0;" width="6" x="445" y="334.1328"/><text fill="#000000" font-family="sans-serif" font-size="14" lengthAdjust="spacing" textLength="83" x="457" y="341.3613">status: String</text><line style="stroke:#181818;stroke-width:1.0;stroke-dasharray:1.0,2.0;" x1="438" x2="759" y1="348.4375" y2="348.4375"/><ellipse cx="448" cy="362.7422" fill="#84BE84" rx="3" ry="3" style="stroke:#038048;stroke-width:1.0;"/><text fill="#000000" font-family="sans-serif" font-size="14" lengthAdjust="spacing" textLength="297" x="457" y="366.9707">add_product(device: Device, quantity: int): void</text><ellipse cx="448" cy="380.3516" fill="#84BE84" rx="3" ry="3" style="stroke:#038048;stroke-width:1.0;"/><text fill="#000000" font-family="sans-serif" font-size="14" lengthAdjust="spacing" textLength="136" x="457" y="384.5801">calculate_total(): float</text><ellipse cx="448" cy="397.9609" fill="#84BE84" rx="3" ry="3" style="stroke:#038048;stroke-width:1.0;"/><text fill="#000000" font-family="sans-serif" font-size="14" lengthAdjust="spacing" textLength="284" x="457" y="402.1895">apply_discount(discount_percent: float): float</text><ellipse cx="448" cy="415.5703" fill="#84BE84" rx="3" ry="3" style="stroke:#038048;stroke-width:1.0;"/><text fill="#000000" font-family="sans-serif" font-size="14" lengthAdjust="spacing" textLength="179" x="457" y="419.7988">print_order_summary(): void</text></g><!--reverse link Device to MobilePhone--><g id="link_Device_MobilePhone"><path codeLine="63" d="M317.564,616.5996 C294.084,636.0696 282,646.09 259.38,664.84 " fill="none" id="Device-backto-MobilePhone" style="stroke:#181818;stroke-width:1.0;"/><polygon fill="none" points="331.42,605.11,313.7341,611.981,321.3939,621.2183,331.42,605.11" style="stroke:#181818;stroke-width:1.0;"/></g><!--reverse link Device to Laptop--><g id="link_Device_Laptop"><path codeLine="64" d="M401.5,623.11 C401.5,642.58 401.5,646.09 401.5,664.84 " fill="none" id="Device-backto-Laptop" style="stroke:#181818;stroke-width:1.0;"/><polygon fill="none" points="401.5,605.11,395.5,623.11,407.5,623.11,401.5,605.11" style="stroke:#181818;stroke-width:1.0;"/></g><!--reverse link Device to Television--><g id="link_Device_Television"><path codeLine="65" d="M479.0222,617.1925 C500.5222,636.6625 510.94,646.09 531.66,664.84 " fill="none" id="Device-backto-Television" style="stroke:#181818;stroke-width:1.0;"/><polygon fill="none" points="465.68,605.11,474.9947,621.6399,483.0497,612.745,465.68,605.11" style="stroke:#181818;stroke-width:1.0;"/></g><!--reverse link Inventory to Device--><g id="link_Inventory_Device"><path codeLine="66" d="M275.2788,409.4911 C301.0788,437.1911 322.51,460.2 347.36,486.87 " fill="none" id="Inventory-backto-Device" style="stroke:#181818;stroke-width:1.0;"/><polygon fill="#181818" points="267.1,400.71,268.2624,407.8268,275.2788,409.4911,274.1164,402.3743,267.1,400.71" style="stroke:#181818;stroke-width:1.0;"/></g><!--reverse link Customer to Order--><g id="link_Customer_Order"><path codeLine="67" d="M598.5,190.08 C598.5,209.45 598.5,218.16 598.5,237.89 " fill="none" id="Customer-backto-Order" style="stroke:#181818;stroke-width:1.0;"/><polygon fill="none" points="598.5,178.08,594.5,184.08,598.5,190.08,602.5,184.08,598.5,178.08" style="stroke:#181818;stroke-width:1.0;"/></g><!--reverse link Order to Device--><g id="link_Order_Device"><path codeLine="68" d="M503.0525,435.9723 C484.1225,456.3023 472.8,468.45 455.59,486.93 " fill="none" id="Order-backto-Device" style="stroke:#181818;stroke-width:1.0;"/><polygon fill="none" points="511.23,427.19,504.2138,428.8553,503.0525,435.9723,510.0687,434.307,511.23,427.19" style="stroke:#181818;stroke-width:1.0;"/></g><!--SRC=[dLH1Rjim4Bph5JmgJPm7244kwQL0YWP8xyIQtBe4A98bLmRKf7_FcfIeKcqFgG-Il1xkU6Ps1ST44HG9PI4byH7FHg5uwGH_3k8OmUb1F5CqxhJKGcJ48BvP3xIKVapWoD0y2EDAxVOstwx52Kbg930szLUrqw-kAtoV_T5OVFhktKRg0qOWXiaq9y9nnv_8HpYXL110_HVf8mJoeVA5w1McvEEEACBu_jvVqRA5oNXN-oSL4PrCvkVEDfDa6Y7I88xUMmJtBgPFxeoElPWhaSxXfK4ycaHt9ShxjYTeBGkiBxTXYPm9pjxe1HPnz6TSaSqKjC0fQA0LADSvQ4_SjFDnrTXyBRH9mS8ipQgdNocgr8U9GnynLgKEHjoFvMM6TZLM6pdPNHL7jdHNyr5ZN9txSldo5-CogC_NGMHGQuO2goPxyOCyWPKfiA2BcX9wbPEFLYrg4JTKcTjSwadH-g_w4jHDzl1-ZPpPXdmbCsBT4A2fLTteM1hl9k3FcFujRHErT0t1pfAJL7vYoUk3v4rMxC42tXtY5mb3ifqoJIDlGXFzyYgwUpqSVdzDDFMooKrfMy1ksv0F_4C1TNMMFDTo4bt9ms-ODm00]--></g></svg>