<?xml version="1.0" encoding="us-ascii" standalone="no"?><svg xmlns="http://www.w3.org/2000/svg" xmlns:xlink="http://www.w3.org/1999/xlink" contentStyleType="text/css" height="202px" preserveAspectRatio="none" style="width:1981px;height:202px;background:#FFFFFF;" version="1.1" viewBox="0 0 1981 202" width="1981px" zoomAndPan="magnify"><defs/><g><!--entity Kupac--><g id="elem_Kupac"><ellipse cx="401.5" cy="14" fill="#F1F1F1" rx="8" ry="8" style="stroke:#181818;stroke-width:0.5;"/><path d="M401.5,22 L401.5,49 M388.5,30 L414.5,30 M401.5,49 L388.5,64 M401.5,49 L414.5,64 " fill="none" style="stroke:#181818;stroke-width:0.5;"/><text fill="#000000" font-family="sans-serif" font-size="14" lengthAdjust="spacing" textLength="40" x="381.5" y="80.0332">Kupac</text></g><!--entity Prodavac--><g id="elem_Prodavac"><ellipse cx="1436.5" cy="14" fill="#F1F1F1" rx="8" ry="8" style="stroke:#181818;stroke-width:0.5;"/><path d="M1436.5,22 L1436.5,49 M1423.5,30 L1449.5,30 M1436.5,49 L1423.5,64 M1436.5,49 L1449.5,64 " fill="none" style="stroke:#181818;stroke-width:0.5;"/><text fill="#000000" font-family="sans-serif" font-size="14" lengthAdjust="spacing" textLength="60" x="1406.5" y="80.0332">Prodavac</text></g><g id="elem_UC1"><ellipse cx="88.3351" cy="169.867" fill="#F1F1F1" rx="82.3351" ry="18.867" style="stroke:#181818;stroke-width:0.5;"/><text fill="#000000" font-family="sans-serif" font-size="14" lengthAdjust="spacing" textLength="120" x="28.3351" y="173.5955">Pretraga proizvoda</text></g><g id="elem_UC2"><ellipse cx="296.3974" cy="169.9795" fill="#F1F1F1" rx="90.3974" ry="20.4795" style="stroke:#181818;stroke-width:0.5;"/><text fill="#000000" font-family="sans-serif" font-size="14" lengthAdjust="spacing" textLength="139" x="226.8974" y="173.708">Naru&#269;ivanje proizvoda</text></g><g id="elem_UC3"><ellipse cx="505.5873" cy="170.1175" fill="#F1F1F1" rx="83.5873" ry="19.1175" style="stroke:#181818;stroke-width:0.5;"/><text fill="#000000" font-family="sans-serif" font-size="14" lengthAdjust="spacing" textLength="123" x="444.0873" y="173.846">Pregled porud&#382;bina</text></g><g id="elem_UC4"><ellipse cx="744.591" cy="169.9182" fill="#F1F1F1" rx="120.091" ry="26.4182" style="stroke:#181818;stroke-width:0.5;"/><text fill="#000000" font-family="sans-serif" font-size="14" lengthAdjust="spacing" textLength="205" x="642.091" y="173.6467">Generisanje izve&#353;taja o potro&#353;nji</text></g><g id="elem_UC5"><ellipse cx="1004.5397" cy="169.8079" fill="#F1F1F1" rx="104.5397" ry="23.3079" style="stroke:#181818;stroke-width:0.5;"/><text fill="#000000" font-family="sans-serif" font-size="14" lengthAdjust="spacing" textLength="171" x="919.0397" y="173.5365">Dodavanje novih proizvoda</text></g><g id="elem_UC6"><ellipse cx="1229.6926" cy="170.0385" fill="#F1F1F1" rx="85.6926" ry="19.5385" style="stroke:#181818;stroke-width:0.5;"/><text fill="#000000" font-family="sans-serif" font-size="14" lengthAdjust="spacing" textLength="128" x="1165.6926" y="173.767">A&#382;uriranje proizvoda</text></g><g id="elem_UC7"><ellipse cx="1436.5408" cy="170.2082" fill="#F1F1F1" rx="86.5408" ry="19.7082" style="stroke:#181818;stroke-width:0.5;"/><text fill="#000000" font-family="sans-serif" font-size="14" lengthAdjust="spacing" textLength="130" x="1371.5408" y="173.9367">Uklanjanje proizvoda</text></g><g id="elem_UC8"><ellipse cx="1637.5785" cy="170.2157" fill="#F1F1F1" rx="79.0785" ry="18.2157" style="stroke:#181818;stroke-width:0.5;"/><text fill="#000000" font-family="sans-serif" font-size="14" lengthAdjust="spacing" textLength="112" x="1580.1751" y="174.3395">Pregled inventara</text></g><g id="elem_UC9"><ellipse cx="1863.304" cy="169.7608" fill="#F1F1F1" rx="111.804" ry="24.7608" style="stroke:#181818;stroke-width:0.5;"/><text fill="#000000" font-family="sans-serif" font-size="14" lengthAdjust="spacing" textLength="187" x="1769.804" y="173.4893">A&#382;uriranje statusa porud&#382;bine</text></g><!--link Kupac to UC1--><g id="link_Kupac_UC1"><path d="M381.44,53.41 C330.58,73.48 201.3712,124.4678 133.8312,151.1178 " fill="none" id="Kupac-to-UC1" style="stroke:#181818;stroke-width:1.0;"/><polygon fill="#181818" points="128.25,153.32,138.09,153.7374,132.901,151.4848,135.1537,146.2958,128.25,153.32" style="stroke:#181818;stroke-width:1.0;"/></g><!--link Kupac to UC2--><g id="link_Kupac_UC2"><path d="M381.25,69.31 C361.35,92.72 335.2367,123.439 316.7767,145.149 " fill="none" id="Kupac-to-UC2" style="stroke:#181818;stroke-width:1.0;"/><polygon fill="#181818" points="312.89,149.72,321.7673,145.4547,316.1289,145.9109,315.6727,140.2724,312.89,149.72" style="stroke:#181818;stroke-width:1.0;"/></g><!--link Kupac to UC3--><g id="link_Kupac_UC3"><path d="M421.55,69.31 C441.74,93.28 468.5449,125.1208 486.6949,146.6708 " fill="none" id="Kupac-to-UC3" style="stroke:#181818;stroke-width:1.0;"/><polygon fill="#181818" points="490.56,151.26,487.8217,141.7995,487.339,147.4357,481.7028,146.953,490.56,151.26" style="stroke:#181818;stroke-width:1.0;"/></g><!--link Kupac to UC4--><g id="link_Kupac_UC4"><path d="M421.93,52.86 C472.48,71.06 599.3449,116.7371 677.9049,145.0271 " fill="none" id="Kupac-to-UC4" style="stroke:#181818;stroke-width:1.0;"/><polygon fill="#181818" points="683.55,147.06,676.4375,140.2473,678.8457,145.366,673.7271,147.7741,683.55,147.06" style="stroke:#181818;stroke-width:1.0;"/></g><!--link Prodavac to UC5--><g id="link_Prodavac_UC5"><path d="M1406.47,54.09 C1336.53,74.08 1167.3689,122.4409 1072.9889,149.4209 " fill="none" id="Prodavac-to-UC5" style="stroke:#181818;stroke-width:1.0;"/><polygon fill="#181818" points="1067.22,151.07,1076.9728,152.4422,1072.0274,149.6957,1074.7739,144.7504,1067.22,151.07" style="stroke:#181818;stroke-width:1.0;"/></g><!--link Prodavac to UC6--><g id="link_Prodavac_UC6"><path d="M1406.4,63.46 C1366.82,87.07 1302.8825,125.2156 1263.7825,148.5456 " fill="none" id="Prodavac-to-UC6" style="stroke:#181818;stroke-width:1.0;"/><polygon fill="#181818" points="1258.63,151.62,1268.4083,150.4434,1262.9237,149.058,1264.3092,143.5734,1258.63,151.62" style="stroke:#181818;stroke-width:1.0;"/></g><!--link Prodavac to UC7--><g id="link_Prodavac_UC7"><path d="M1436.5,83.56 C1436.5,105.67 1436.5,126.56 1436.5,144.2 " fill="none" id="Prodavac-to-UC7" style="stroke:#181818;stroke-width:1.0;"/><polygon fill="#181818" points="1436.5,150.2,1440.5,141.2,1436.5,145.2,1432.5,141.2,1436.5,150.2" style="stroke:#181818;stroke-width:1.0;"/></g><!--link Prodavac to UC8--><g id="link_Prodavac_UC8"><path d="M1466.59,63.99 C1505.91,88.15 1569.008,126.9087 1606.258,149.7987 " fill="none" id="Prodavac-to-UC8" style="stroke:#181818;stroke-width:1.0;"/><polygon fill="#181818" points="1611.37,152.94,1605.7962,144.8201,1607.11,150.3223,1601.6078,151.636,1611.37,152.94" style="stroke:#181818;stroke-width:1.0;"/></g><!--link Prodavac to UC9--><g id="link_Prodavac_UC9"><path d="M1466.53,54.18 C1534.77,73.92 1697.1261,120.8833 1791.2261,148.0933 " fill="none" id="Prodavac-to-UC9" style="stroke:#181818;stroke-width:1.0;"/><polygon fill="#181818" points="1796.99,149.76,1789.4553,143.4174,1792.1868,148.3711,1787.2331,151.1026,1796.99,149.76" style="stroke:#181818;stroke-width:1.0;"/></g><!--SRC=[RP4v3i8m44LxdyAYfs19W0O9WKI1X6Wum92Cm07PqNWfk0E7u29Kv5uOAr7Mpl_x_V5u1XAZY1zi3Wc3S3wHIi5voQp613JoqOdG45o1vwJ4q_dx4GVDpzj9pHo1xFSb7CWCUzoqLUlwm9JdYcnQV2v2Lj2iXlOeaOGEjNmXBDu6Ck3AfmofuYqpKORcZJPteV5_HYedRhqkeXhT51zBWWQRZMliV7zuP91QzByaf4DfW2faEVoUDc2iXiO4i0oi60kRuEFnEaotgQOjDMifFuLgRQKJTOsuQoownh9hhDWF]--></g></svg>